<?xml version="1.0" encoding="UTF-8"?>
<svg id="Capa_2" data-name="Capa 2" xmlns="http://www.w3.org/2000/svg" viewBox="0 0 837.27 384.78">
  <defs>
    <style>
      .cls-1 {
        letter-spacing: 0em;
      }

      .cls-2 {
        letter-spacing: 0em;
      }

      .cls-3, .cls-4 {
        fill: #126782;
      }

      .cls-5 {
        letter-spacing: 0em;
      }

      .cls-4 {
        font-family: Aventa-Light, Aventa;
        font-size: 125.98px;
      }
    </style>
  </defs>
  <g id="Capa_1-2" data-name="Capa 1">
    <g>
      <text class="cls-4" transform="translate(394.4 353.66) scale(.99 1)"><tspan class="cls-1" x="0" y="0">a</tspan><tspan x="72.44" y="0">g</tspan><tspan class="cls-2" x="153.57" y="0">e</tspan><tspan class="cls-5" x="230.42" y="0">n</tspan><tspan class="cls-2" x="304.25" y="0">c</tspan><tspan x="378.57" y="0">y</tspan></text>
      <path class="cls-3" d="M823.18,39.73V0H318.26V146L259.52,0h-66.37l-47.6,118.3H56.24V43.71h115.84V0H0V269.9H56.24v-107.7H127.88l-43.34,107.7H229.35v-47.81h-69.38L226.33,46.65l84.13,223.25h62.5v-92.82h34.64c17.62,0,33-2.2,46.13-6.6,13.13-4.4,24-10.57,32.64-18.51,8.63-7.93,15.07-17.42,19.33-28.46,4.25-11.03,6.38-23.19,6.38-36.46,0-12.52-2.04-24.12-6.11-34.78-.99-2.59-2.11-5.08-3.36-7.5h45.01v223.68h54.88V44.77h48.68v223.68h172v-39.91h-120.89v-75.93h95.24v-38.43h-95.24V39.73h120.89ZM445.25,121.65c-7.96,8.43-20.51,12.65-37.65,12.65h-34.64V42.41h34.64c8.51,0,15.86,1.06,22.06,3.16,6.2,2.11,11.33,5.12,15.41,9.02,4.07,3.91,7.11,8.62,9.12,14.14,2.01,5.52,3.01,11.63,3.01,18.32,0,14.63-3.98,26.17-11.94,34.6Z"/>
    </g>
  </g>
</svg>